<svg id="Layer_1" enable-background="new 0 0 64 64" height="512" viewBox="0 0 64 64" width="512" xmlns="http://www.w3.org/2000/svg"><circle cx="32" cy="32" fill="#c69c6d" r="24"/><path d="m56 32c0 .85-.04 1.68-.13 2.5-.16 1.55-.47 3.06-.91 4.5-.65 2.14-1.6 4.16-2.79 6h-.01c-4.26 6.62-11.7 11-20.16 11-4.23 0-8.21-1.1-11.67-3.04 6.57-.36 12.44-3.36 16.55-7.97 1.6-1.78 2.93-3.79 3.93-5.99.66-1.43 1.19-2.93 1.55-4.5.38-1.61.6-3.28.62-5l.02-.5c0-2.8-.48-5.49-1.37-8-.62-1.77-1.45-3.45-2.46-5-2.13-3.31-5.05-6.05-8.5-7.96.44-.03.88-.04 1.33-.04 7.1 0 13.49 3.09 17.88 8 1.36 1.51 2.52 3.19 3.46 5 1.33 2.59 2.21 5.46 2.53 8.5.09.82.13 1.66.13 2.5z" fill="#af8861"/><path d="m23 23c-4.102 0-7.556 2.747-8.641 6.5h-6.229c-.085.822-.13 1.656-.13 2.5s.045 1.678.13 2.5h6.229c1.085 3.753 4.539 6.5 8.641 6.5s7.556-2.747 8.641-6.5h24.229c.085-.822.13-1.656.13-2.5s-.045-1.678-.13-2.5h-24.229c-1.085-3.753-4.539-6.5-8.641-6.5zm0 13c-2.209 0-4-1.791-4-4s1.791-4 4-4 4 1.791 4 4-1.791 4-4 4z" fill="#d1b08a"/><path d="m54.96 39h-17.96c-1.657 0-3 1.343-3 3s1.343 3 3 3h15.17c1.19-1.843 2.137-3.857 2.79-6z" fill="#d1b08a"/><path d="m29 45h-17.17c1.486 2.301 3.353 4.33 5.515 6h11.655c1.657 0 3-1.343 3-3s-1.343-3-3-3z" fill="#d1b08a"/><path d="m49.884 16h-15.384c-1.381 0-2.5 1.119-2.5 2.5s1.119 2.5 2.5 2.5h18.829c-.938-1.813-2.096-3.493-3.445-5z" fill="#d1b08a"/><g fill="#bf9f7f"><path d="m41.63 21c-.62-1.77-1.45-3.45-2.46-5h10.71c1.25 1.4 2.34 2.95 3.24 4.62.04.06.08.12.11.19.02.03.04.07.06.11.01.03.02.06.03.08z"/><path d="m54.96 39c-.12.4-.25.8-.4 1.19-.14.39-.29.78-.45 1.16-.14.32-.29.65-.45.97-.17.38-.36.75-.56 1.11-.08.15-.16.29-.24.43-.22.39-.45.77-.69 1.14h-15.17c-.04 0-.08 0-.12-.01 1.6-1.78 2.93-3.79 3.93-5.99z"/><path d="m56 32c0 .53-.02 1.06-.06 1.58-.01.31-.04.62-.07.92h-13.51c.38-1.61.6-3.28.63-5h12.88c.03.3.06.61.07.92.04.52.06 1.05.06 1.58z"/><path d="m55.87 29.5h-12.89c-.02 1.72-.24 3.39-.62 5h13.51c.09-.82.13-1.65.13-2.5 0-.84-.04-1.68-.13-2.5z"/><path d="m54.96 39c-.65 2.14-1.6 4.16-2.79 6h-15.17c-.04 0-.08 0-.12-.01 1.6-1.78 2.93-3.79 3.93-5.99z"/><path d="m53.34 21h-11.71c-.62-1.77-1.45-3.45-2.46-5h10.71c1.36 1.51 2.52 3.19 3.46 5z"/></g><path d="m13.271 17h10.729c1.105 0 2-.895 2-2s-.895-2-2-2h-6.655c-1.511 1.168-2.879 2.511-4.074 4z" fill="#d1b08a"/><path d="m10 33c0 9.01 4.97 16.86 12.32 20.95-8.43-3.71-14.32-12.15-14.32-21.95 0-13.25 10.75-24 24-24 4.24 0 8.22 1.1 11.68 3.05-2.96-1.32-6.24-2.05-9.68-2.05-13.25 0-24 10.75-24 24z" fill="#f4ebe2"/><path d="m19.952 52.757c-.134.241-.047.546.194.68 3.61 2.004 7.708 3.063 11.854 3.063 7.477 0 14.441-3.349 19.11-9.188.172-.215.138-.53-.078-.703-.217-.172-.53-.137-.703.079-4.477 5.6-11.158 8.812-18.329 8.812-3.976 0-7.907-1.016-11.367-2.937-.24-.133-.546-.048-.681.194z"/><path d="m21.004 11.231c3.363-1.787 7.166-2.731 10.996-2.731 5.314 0 10.53 1.833 14.687 5.16.092.074.202.11.313.11.146 0 .292-.064.391-.188.172-.216.138-.53-.078-.703-4.334-3.468-9.773-5.379-15.313-5.379-3.993 0-7.958.985-11.465 2.849-.244.129-.337.432-.207.676s.434.336.676.206z"/><path d="m8.427 27.489c.035.007.07.011.104.011.23 0 .438-.162.488-.397.588-2.788 1.675-5.422 3.23-7.832.15-.232.083-.542-.148-.691s-.541-.083-.691.148c-1.623 2.513-2.756 5.261-3.369 8.168-.057.271.116.536.386.593z"/><path d="m8.427 36.511c-.271.058-.443.323-.386.593.454 2.138 1.186 4.198 2.175 6.125.088.172.264.271.444.271.077 0 .155-.018.229-.055.245-.126.343-.428.216-.673-.948-1.847-1.649-3.824-2.085-5.875-.058-.272-.333-.441-.593-.386z"/><path d="m54.451 23.529c-.26.094-.395.38-.302.64.445 1.239.791 2.557 1.028 3.917.042.243.253.414.491.414.029 0 .058-.002.087-.007.271-.047.454-.306.406-.579-.246-1.417-.606-2.791-1.071-4.083-.093-.261-.381-.393-.639-.302z"/><path d="m18.5 32c0 2.481 2.019 4.5 4.5 4.5s4.5-2.019 4.5-4.5-2.019-4.5-4.5-4.5-4.5 2.019-4.5 4.5zm8 0c0 1.93-1.57 3.5-3.5 3.5s-3.5-1.57-3.5-3.5 1.57-3.5 3.5-3.5 3.5 1.57 3.5 3.5z"/><path d="m8.13 30h6.23c.223 0 .419-.147.48-.362 1.042-3.614 4.397-6.138 8.16-6.138s7.118 2.524 8.159 6.138c.062.215.258.362.481.362h24.22c.276 0 .5-.224.5-.5s-.224-.5-.5-.5h-23.852c-1.278-3.846-4.928-6.5-9.008-6.5s-7.73 2.654-9.008 6.5h-5.862c-.276 0-.5.224-.5.5s.224.5.5.5z"/><path d="m8.13 35h5.862c1.277 3.846 4.928 6.5 9.008 6.5s7.73-2.654 9.008-6.5h23.862c.276 0 .5-.224.5-.5s-.224-.5-.5-.5h-24.23c-.223 0-.419.147-.48.362-1.042 3.614-4.397 6.138-8.16 6.138s-7.118-2.524-8.159-6.138c-.062-.215-.258-.362-.481-.362h-6.23c-.276 0-.5.224-.5.5s.224.5.5.5z"/><path d="m54.96 39.5c.276 0 .495-.224.495-.5s-.229-.5-.505-.5h-17.95c-1.93 0-3.5 1.57-3.5 3.5s1.57 3.5 3.5 3.5h15.16c.276 0 .5-.224.5-.5s-.224-.5-.5-.5h-15.16c-1.379 0-2.5-1.122-2.5-2.5s1.121-2.5 2.5-2.5h17.95z"/><path d="m11.83 45.5h17.17c1.379 0 2.5 1.122 2.5 2.5s-1.121 2.5-2.5 2.5h-11.655c-.276 0-.5.224-.5.5s.224.5.5.5h11.655c1.93 0 3.5-1.57 3.5-3.5s-1.57-3.5-3.5-3.5h-17.17c-.276 0-.5.224-.5.5s.224.5.5.5z"/><path d="m31.5 18.5c0 1.654 1.346 3 3 3h18.83c.276 0 .495-.224.495-.5s-.229-.5-.505-.5h-18.82c-1.103 0-2-.897-2-2s.897-2 2-2h15.38c.276 0 .5-.224.5-.5s-.224-.5-.5-.5h-15.38c-1.654 0-3 1.346-3 3z"/><path d="m13.271 17.5h10.729c1.379 0 2.5-1.122 2.5-2.5s-1.121-2.5-2.5-2.5h-6.655c-.276 0-.5.224-.5.5s.224.5.5.5h6.655c.827 0 1.5.673 1.5 1.5s-.673 1.5-1.5 1.5h-10.729c-.276 0-.5.224-.5.5s.224.5.5.5z"/><circle cx="53" cy="52" r="1"/><circle cx="42" cy="25" r="1"/><circle cx="12" cy="38" r="1"/><path d="m52 10.5h1.5v1.5c0 .276.224.5.5.5s.5-.224.5-.5v-1.5h1.5c.276 0 .5-.224.5-.5s-.224-.5-.5-.5h-1.5v-1.5c0-.276-.224-.5-.5-.5s-.5.224-.5.5v1.5h-1.5c-.276 0-.5.224-.5.5s.224.5.5.5z"/><path d="m8 54.5h1.5v1.5c0 .276.224.5.5.5s.5-.224.5-.5v-1.5h1.5c.276 0 .5-.224.5-.5s-.224-.5-.5-.5h-1.5v-1.5c0-.276-.224-.5-.5-.5s-.5.224-.5.5v1.5h-1.5c-.276 0-.5.224-.5.5s.224.5.5.5z"/></svg>