<svg id="Layer_3" enable-background="new 0 0 64 64" height="512" viewBox="0 0 64 64" width="512" xmlns="http://www.w3.org/2000/svg"><circle cx="32" cy="32" fill="#758190" r="30"/><path d="m29.673 2.099c-14.711 1.13-26.444 12.863-27.574 27.574 1.103 13.065 12.05 23.327 25.401 23.327 14.083 0 25.5-11.417 25.5-25.5 0-13.351-10.262-24.298-23.327-25.401z" fill="#a8b0bc"/><circle cx="25.5" cy="23.5" fill="#c1c8d1" r="17.5"/><circle cx="11" cy="36" fill="#f5b953" r="4"/><circle cx="23" cy="52" fill="#f5b953" r="4"/><circle cx="48" cy="20" fill="#3d98f7" r="6"/><circle cx="42" cy="33" fill="#f5b953" r="3"/><circle cx="24" cy="25" fill="#f5b953" r="3"/><g fill="#4d5d7a"><path d="m14 15c0-1.657-1.343-3-3-3h-6c-1.657 0-3-1.343-3-3 0-1.657 1.343-3 3-3h12c1.657 0 3 1.343 3 3 0 1.657 1.343 3 3 3h6c1.657 0 3 1.343 3 3 0 1.657-1.343 3-3 3h-12c-1.657 0-3-1.343-3-3z"/><path d="m50 50c0 1.657 1.343 3 3 3h6c1.657 0 3 1.343 3 3 0 1.657-1.343 3-3 3h-12c-1.657 0-3-1.343-3-3 0-1.657-1.343-3-3-3h-6c-1.657 0-3-1.343-3-3 0-1.657 1.343-3 3-3h12c1.657 0 3 1.343 3 3z"/></g></svg>