<svg id="Layer_1" height="512" viewBox="0 0 128 128" width="512" xmlns="http://www.w3.org/2000/svg" data-name="Layer 1"><path d="m121.5 64a57.5 57.5 0 1 1 -57.5-57.5 57.742 57.742 0 0 1 57.5 57.5z" fill="#4482c3"/><g fill="#3b70a8"><path d="m47.69 36.98c-12.65-.31-22.39-1.08-33.15-2.31a57.425 57.425 0 0 1 13.82-15.79c5.98.46 12.2.79 19.33.96 16 .38 34.56.08 51.59-1.25a57.619 57.619 0 0 1 13.99 15.76c-20.33 2.48-45.06 3.12-65.58 2.63z"/><path d="m116.68 87.06c-.64 1.48-1.35 2.92-2.11 4.33a57.654 57.654 0 0 1 -10.04 13.39h-.01c-7.54-.5-15.12-.83-24.21-.99-17.58-.31-38.26-.01-56.62 1.21a57.511 57.511 0 0 1 -12.34-17.86c20.92-.62 47.29-.78 68.96-.67 13.9.07 24.29.27 36.37.59z"/><path d="m121.5 64c0 1.13-.03 2.24-.1 3.35-21.57 2.46-50.36 3.11-73.71 2.7-15.67-.27-26.87-1.06-41.07-2.35-.08-1.22-.12-2.46-.12-3.7a57.836 57.836 0 0 1 1.47-12.98 367.283 367.283 0 0 0 39.72 3.1c22.82.55 50.84-.3 72.23-3.54h.01a58.2 58.2 0 0 1 1.57 13.42z"/></g></svg>